<?xml version="1.0" encoding="UTF-8"?>
<svg id="Layer_2" data-name="Layer 2" xmlns="http://www.w3.org/2000/svg" xmlns:xlink="http://www.w3.org/1999/xlink" viewBox="0 0 83.62 126.76">
  <defs>
    <style>
      .cls-1 {
        fill: #279aff;
      }

      .cls-2 {
        fill: #e9c66f;
      }

      .cls-3 {
        fill: #27222e;
      }

      .cls-4 {
        fill: #20375e;
      }

      .cls-5 {
        fill: #edbba0;
      }

      .cls-6 {
        clip-path: url(#clippath);
      }

      .cls-7 {
        fill: #161616;
      }

      .cls-8 {
        fill: #f2d279;
      }

      .cls-9 {
        fill: #1e3248;
      }

      .cls-10 {
        fill: #182543;
      }
    </style>
    <clipPath id="clippath">
      <path class="cls-5" d="m29.34,9.72c-.75,4.55-5.06,7.63-9.61,6.88-4.55-.75-7.63-5.06-6.88-9.61C13.61,2.44,17.91-.64,22.46.11c4.55.75,7.63,5.06,6.88,9.61Z"/>
    </clipPath>
  </defs>
  <g id="Capa_1" data-name="Capa 1">
    <g>
      <path class="cls-5" d="m57.82,113.56c-.02-.48-1.12-12.34-1.12-12.34l6.16-1.23,1.2,12.33-6.24,1.24Z"/>
      <path class="cls-7" d="m75.53,112.7l-17.17,3.52-1.06-5.28,11.86-2.43c2.92-.6,5.77,1.27,6.37,4.19h0Z"/>
      <path class="cls-9" d="m34.88,46.81l24.16,18.54.76.59c1.31,1,2.05,2.48,2.19,4l2.95,33.98-8.57,1.27-5.74-34.91,2.95,4.59-28.59-11.96,9.89-16.09Z"/>
      <path class="cls-2" d="m19.43,57.91l20.83-7.41c1.74-.54,2.71-2.39,2.17-4.12l-8.84-28.54-16.64,5.15c-5.97,1.85-9.31,8.19-7.46,14.16l9.93,20.76Z"/>
      <rect class="cls-1" x="32.75" y="10.28" width="46.33" height="46.33" rx="1.91" ry="1.91" transform="translate(-6.47 14.65) rotate(-14.12)"/>
      <path class="cls-5" d="m19.28,123.43c.11-.47,1.8-12.18,1.8-12.18l6.26.45-1.72,12.19-6.34-.47Z"/>
      <path class="cls-3" d="m36.77,126.76l-17.53-.05.04-5.38,12.11.03c2.98,0,5.39,2.42,5.39,5.39h0Z"/>
      <path class="cls-4" d="m33.8,51.49l3.07,24.42.22,1.25c.11.61.08,1.23-.05,1.8l-7.95,37.71-9.37-.68,5.19-38.25.17,3.05-5.84-23.76,14.56-5.53Z"/>
      <path class="cls-5" d="m59.93,39.28c-.52,2.21-2.74,3.59-4.95,3.06-2.21-.52-3.59-2.74-3.06-4.95.52-2.21,2.74-3.59,4.95-3.06,2.21.52,3.59,2.74,3.06,4.95Z"/>
      <polygon class="cls-5" points="53.48 36.11 45.22 40.63 47.82 44.43 57.51 39.96 53.48 36.11"/>
      <g>
        <path class="cls-5" d="m29.34,9.72c-.75,4.55-5.06,7.63-9.61,6.88-4.55-.75-7.63-5.06-6.88-9.61C13.61,2.44,17.91-.64,22.46.11c4.55.75,7.63,5.06,6.88,9.61Z"/>
        <g class="cls-6">
          <polygon class="cls-10" points="23.16 -2.38 14.79 18.13 10.01 4.3 23.16 -2.38"/>
        </g>
      </g>
      <path class="cls-5" d="m19.74,8.87c-.21,1.27-1.42,2.14-2.69,1.93-1.27-.21-2.14-1.42-1.93-2.69.21-1.27,1.42-2.14,2.69-1.93,1.27.21,2.14,1.42,1.93,2.69Z"/>
      <path class="cls-10" d="m14.02,14.45c-1.6,3.71-5.9,5.41-9.61,3.81C.71,16.66-1,12.36.6,8.65c1.6-3.71,5.9-5.41,9.61-3.81,3.71,1.6,5.41,5.9,3.81,9.61Z"/>
      <path class="cls-5" d="m24.71,15.34c.03.48.82,11.57.82,11.57l-7.57-4.31.28-7.07,6.47-.19Z"/>
      <path class="cls-8" d="m31.08,55.63c-1.53.05-3.04-.65-3.97-1.98l-14.73-21.03c-1.47-2.11-.96-5.01,1.14-6.48h0c2.11-1.47,5.01-.96,6.48,1.14l12.29,17.54,18.03-10.38,4.65,8.07-21.72,12.51c-.68.39-1.43.59-2.16.62Z"/>
    </g>
  </g>
</svg>