<?xml version="1.0" encoding="UTF-8"?>
<svg id="Layer_2" data-name="Layer 2" xmlns="http://www.w3.org/2000/svg" viewBox="0 0 19.75 22.96">
  <defs>
    <style>
      .cls-1 {
        fill: #fff;
      }
    </style>
  </defs>
  <g id="Capa_1" data-name="Capa 1">
    <path class="cls-1" d="m18.71,22.96h-6.29c-.57,0-1.04-.47-1.04-1.04v-5.38h-2.76v5.38c0,.57-.47,1.04-1.04,1.04H1.04c-.57,0-1.04-.47-1.04-1.04v-12.83c0-.29.12-.57.34-.77L9.18.27c.4-.36,1-.36,1.4,0l8.84,8.05c.22.2.34.48.34.77v12.83c0,.57-.47,1.04-1.04,1.04Zm-5.26-2.08h4.22v-11.33l-7.8-7.1-7.8,7.1v11.33h4.46v-5.38c0-.57.47-1.04,1.04-1.04h4.84c.57,0,1.04.46,1.04,1.04v5.38Z"/>
  </g>
</svg>