<?xml version="1.0" encoding="UTF-8"?>
<svg id="Layer_2" data-name="Layer 2" xmlns="http://www.w3.org/2000/svg" xmlns:xlink="http://www.w3.org/1999/xlink" viewBox="0 0 21.09 21.36">
  <defs>
    <style>
      .cls-1 {
        fill: #cfcfce;
      }

      .cls-2 {
        fill: #e9e9e9;
      }

      .cls-3 {
        fill: #d0d0cf;
      }

      .cls-4 {
        fill: #fff;
      }

      .cls-5 {
        fill: #dbdbda;
      }

      .cls-6 {
        fill: #d1d1d1;
      }

      .cls-7 {
        fill: #fafafa;
      }

      .cls-8 {
        fill: #f5f5f5;
      }

      .cls-9 {
        fill: #d3d3d2;
      }

      .cls-10 {
        fill: #dcdcdb;
      }

      .cls-11 {
        fill: #dedede;
      }

      .cls-12 {
        fill: #d1d1d0;
      }

      .cls-13 {
        fill: #eeeeed;
      }

      .cls-14 {
        fill: #d7d7d6;
      }

      .cls-15 {
        fill: #e6e6e6;
      }

      .cls-16 {
        fill: #f7f7f6;
      }

      .cls-17 {
        fill: #e7e7e7;
      }

      .cls-18 {
        fill: #d9d9d8;
      }

      .cls-19 {
        fill: #d6d6d5;
      }

      .cls-20 {
        fill: #eaeaea;
      }

      .cls-21 {
        fill: #e5e5e4;
      }

      .cls-22 {
        fill: #d5d5d4;
      }

      .cls-23 {
        clip-path: url(#clippath);
      }

      .cls-24 {
        fill: #d8d8d7;
      }

      .cls-25 {
        fill: none;
      }

      .cls-26 {
        fill: #e2e2e1;
      }

      .cls-27 {
        fill: #d4d4d3;
      }

      .cls-28 {
        fill: #d2d2d1;
      }

      .cls-29 {
        fill: #f1f1f1;
      }

      .cls-30 {
        fill: #f3f3f3;
      }

      .cls-31 {
        fill: #e1e1e0;
      }

      .cls-32 {
        fill: #f8f8f8;
      }

      .cls-33 {
        fill: #eee;
      }

      .cls-34 {
        fill: #dadad9;
      }

      .cls-35 {
        fill: #ececec;
      }

      .cls-36 {
        fill: #dddddc;
      }

      .cls-37 {
        fill: #e3e3e3;
      }

      .cls-38 {
        fill: #f0f0ef;
      }

      .cls-39 {
        fill: #fcfcfc;
      }

      .cls-40 {
        fill: #dfdfdf;
      }
    </style>
    <clipPath id="clippath">
      <path class="cls-25" d="m20.74,4.34c0,2.21-1.79,4-4,4s-4-1.79-4-4,1.79-4,4-4,4,1.79,4,4Z"/>
    </clipPath>
  </defs>
  <g id="Capa_1" data-name="Capa 1">
    <g>
      <path class="cls-4" d="m17.69,21.36H1.04c-.57,0-1.04-.47-1.04-1.04V2.78c0-.57.47-1.04,1.04-1.04h9.1c.57,0,1.04.47,1.04,1.04s-.47,1.04-1.04,1.04H2.08v15.46h14.57v-7.73c0-.57.47-1.04,1.04-1.04s1.04.47,1.04,1.04v8.77c0,.57-.47,1.04-1.04,1.04Z"/>
      <g>
        <g class="cls-23">
          <rect class="cls-4" x="12.75" y=".35" width="7.99" height="7.99"/>
          <path class="cls-4" d="m21,9.03h-8.35v.67c0-1.24,1.85-2.26,4.16-2.27,2.3-.02,4.18.97,4.19,2.21v-.6Z"/>
          <path class="cls-39" d="m20.92,9.03h-8.19v.66c0-1.22,1.82-2.21,4.08-2.23,2.26-.02,4.1.95,4.11,2.17v-.6Z"/>
          <path class="cls-7" d="m20.84,9.03h-8.04v.66c0-1.19,1.78-2.17,4-2.19,2.22-.02,4.03.94,4.04,2.13v-.6Z"/>
          <path class="cls-32" d="m20.76,9.03h-7.88v.66c0-1.17,1.75-2.13,3.92-2.15,2.18-.02,3.95.92,3.96,2.09v-.6Z"/>
          <path class="cls-16" d="m20.69,9.03h-7.73v.66c0-1.15,1.71-2.09,3.85-2.11,2.13-.02,3.87.9,3.88,2.05v-.6Z"/>
          <path class="cls-8" d="m20.61,9.03h-7.57v.66c0-1.12,1.68-2.05,3.77-2.06,2.09-.02,3.79.88,3.8,2v-.6Z"/>
          <path class="cls-30" d="m20.53,9.03h-7.42v.66c0-1.1,1.65-2.01,3.69-2.02,2.05-.02,3.72.86,3.73,1.96v-.6Z"/>
          <path class="cls-29" d="m20.45,9.03h-7.27v.66c0-1.08,1.61-1.96,3.62-1.98,2.01-.02,3.64.85,3.65,1.92v-.6Z"/>
          <path class="cls-38" d="m20.38,9.03h-7.11v.66c0-1.05,1.58-1.92,3.54-1.94,1.96-.02,3.56.83,3.57,1.88v-.6Z"/>
          <path class="cls-33" d="m20.3,9.03h-6.96v.66c0-1.03,1.54-1.88,3.46-1.9,1.92-.02,3.48.81,3.49,1.84v-.61Z"/>
          <path class="cls-13" d="m20.22,9.03h-6.8v.66c0-1.01,1.51-1.84,3.39-1.85,1.88-.01,3.41.79,3.42,1.8v-.61Z"/>
          <path class="cls-35" d="m20.15,9.03h-6.65v.66c0-.99,1.47-1.8,3.31-1.81,1.84-.01,3.33.77,3.34,1.76v-.61Z"/>
          <path class="cls-20" d="m20.07,9.03h-6.49v.66c0-.96,1.44-1.76,3.23-1.77,1.79-.01,3.25.76,3.26,1.72v-.61Z"/>
          <path class="cls-2" d="m19.99,9.03h-6.34v.66c0-.94,1.41-1.71,3.16-1.73,1.75-.01,3.17.74,3.18,1.68v-.61Z"/>
          <path class="cls-17" d="m19.91,9.03h-6.18v.66c0-.92,1.37-1.67,3.08-1.69s3.1.72,3.1,1.64v-.61Z"/>
          <path class="cls-15" d="m19.84,9.03h-6.03v.66c0-.89,1.34-1.63,3-1.64s3.02.7,3.03,1.6v-.61Z"/>
          <path class="cls-21" d="m19.76,9.03h-5.87v.66c0-.87,1.3-1.59,2.92-1.6s2.94.68,2.95,1.55v-.61Z"/>
          <path class="cls-37" d="m19.68,9.03h-5.72v.65c0-.85,1.27-1.55,2.85-1.56,1.58-.01,2.87.67,2.87,1.51v-.61Z"/>
          <path class="cls-26" d="m19.61,9.03h-5.56v.65c0-.83,1.23-1.5,2.77-1.52,1.54-.01,2.79.65,2.79,1.47v-.61Z"/>
          <path class="cls-31" d="m19.53,9.03h-5.41v.65c0-.8,1.2-1.46,2.69-1.47s2.71.63,2.72,1.43v-.61Z"/>
          <path class="cls-40" d="m19.45,9.03h-5.26v.65c0-.78,1.17-1.42,2.62-1.43s2.63.61,2.64,1.39v-.61Z"/>
          <path class="cls-11" d="m19.37,9.03h-5.1v.65c0-.76,1.13-1.38,2.54-1.39s2.56.59,2.56,1.35v-.61Z"/>
          <path class="cls-36" d="m19.3,9.03h-4.95v.65c0-.73,1.1-1.34,2.46-1.35,1.37-.01,2.48.58,2.48,1.31v-.61Z"/>
          <path class="cls-10" d="m19.22,9.03h-4.79v.65c0-.71,1.06-1.3,2.39-1.31,1.32-.01,2.4.56,2.41,1.27v-.61Z"/>
          <path class="cls-5" d="m19.14,9.03h-4.64v.65c0-.69,1.03-1.25,2.31-1.26,1.28-.01,2.32.54,2.33,1.23v-.61Z"/>
          <path class="cls-34" d="m19.06,9.03h-4.48v.65c0-.66.99-1.21,2.23-1.22,1.24,0,2.25.52,2.25,1.19v-.61Z"/>
          <path class="cls-18" d="m18.99,9.03h-4.33v.65c0-.64.96-1.17,2.16-1.18,1.2,0,2.17.5,2.17,1.15v-.62Z"/>
          <path class="cls-24" d="m18.91,9.03h-4.17v.65c0-.62.93-1.13,2.08-1.14,1.15,0,2.09.49,2.1,1.1v-.62Z"/>
          <path class="cls-14" d="m18.83,9.03h-4.02v.65c0-.6.89-1.09,2-1.1,1.11,0,2.01.47,2.02,1.06v-.62Z"/>
          <path class="cls-19" d="m18.75,9.03h-3.86v.65c0-.57.86-1.04,1.92-1.05,1.07,0,1.94.45,1.94,1.02v-.62Z"/>
          <path class="cls-22" d="m18.68,9.03h-3.71v.65c0-.55.82-1,1.85-1.01,1.02,0,1.86.43,1.86.98v-.62Z"/>
          <path class="cls-27" d="m18.6,9.03h-3.56v.65c0-.53.79-.96,1.77-.97s1.78.41,1.78.94v-.62Z"/>
          <path class="cls-9" d="m18.52,9.03h-3.4v.65c0-.5.75-.92,1.69-.93s1.7.4,1.71.9v-.62Z"/>
          <path class="cls-28" d="m18.45,9.03h-3.25v.65c0-.48.72-.88,1.62-.88s1.63.38,1.63.86v-.62Z"/>
          <path class="cls-6" d="m18.37,9.03h-3.09v.64c0-.46.69-.84,1.54-.84.85,0,1.55.36,1.55.82v-.62Z"/>
          <path class="cls-12" d="m18.29,9.03h-2.94v.64c0-.44.65-.79,1.46-.8.81,0,1.47.34,1.47.78v-.62Z"/>
          <path class="cls-3" d="m18.21,9.03h-2.78v.64c0-.41.62-.75,1.39-.76.77,0,1.39.32,1.4.74v-.62Z"/>
          <path class="cls-1" d="m18.14,9.03h-2.63v.64c0-.39.58-.71,1.31-.72.73,0,1.32.31,1.32.7v-.62Z"/>
          <path class="cls-1" d="m18.06,9.03h-2.47v.64c0-.37.55-.67,1.23-.67s1.24.29,1.24.65v-.62Z"/>
        </g>
        <path class="cls-4" d="m16.75,8.68c-2.39,0-4.34-1.95-4.34-4.34S14.35,0,16.75,0s4.34,1.95,4.34,4.34-1.95,4.34-4.34,4.34Zm0-7.99c-2.01,0-3.65,1.64-3.65,3.65s1.64,3.65,3.65,3.65,3.65-1.64,3.65-3.65-1.64-3.65-3.65-3.65Z"/>
      </g>
    </g>
  </g>
</svg>