<?xml version="1.0" encoding="UTF-8"?>
<svg id="Layer_2" data-name="Layer 2" xmlns="http://www.w3.org/2000/svg" viewBox="0 0 24.86 28.98">
  <defs>
    <style>
      .cls-1 {
        fill: #fff;
      }
    </style>
  </defs>
  <g id="Capa_1" data-name="Capa 1">
    <path class="cls-1" d="m12.43,28.98c-4.37,0-8.53-1.41-12.02-4.08-.26-.2-.41-.5-.41-.83v-2.21c0-4.17,2.76-7.82,6.58-9.1-1.2-1.38-1.87-3.16-1.87-5.04C4.71,3.46,8.17,0,12.43,0s7.72,3.46,7.72,7.72c0,1.88-.68,3.66-1.87,5.04,3.82,1.28,6.58,4.93,6.58,9.1v2.21c0,.32-.15.63-.41.83-3.49,2.67-7.65,4.08-12.02,4.08Zm-10.35-5.43c3.04,2.2,6.61,3.35,10.35,3.35s7.31-1.16,10.35-3.35v-1.69c0-3.85-3-7.14-6.84-7.48-.44-.04-.81-.36-.92-.79-.11-.43.07-.88.45-1.12,1.63-1.05,2.6-2.82,2.6-4.75,0-3.11-2.53-5.64-5.64-5.64s-5.64,2.53-5.64,5.64c0,1.93.97,3.7,2.6,4.75.37.24.55.69.45,1.12-.11.43-.47.75-.92.79-3.84.34-6.84,3.63-6.84,7.48v1.69Zm21.74.52h0,0Z"/>
  </g>
</svg>