<?xml version="1.0" encoding="UTF-8"?>
<svg id="Layer_2" data-name="Layer 2" xmlns="http://www.w3.org/2000/svg" viewBox="0 0 22.41 21.6">
  <defs>
    <style>
      .cls-1 {
        fill: #fff;
      }
    </style>
  </defs>
  <g id="Capa_1" data-name="Capa 1">
    <path class="cls-1" d="m6.13,21.6c-.61,0-1.22-.19-1.76-.58-1.07-.78-1.49-2.09-1.09-3.34l1.06-3.27c.12-.38-.01-.79-.33-1.02l-2.78-2.02c-1.07-.78-1.49-2.09-1.09-3.34.41-1.25,1.52-2.06,2.84-2.06h3.44c.4,0,.74-.25.87-.63l1.06-3.27c.41-1.25,1.52-2.07,2.84-2.07s2.43.81,2.84,2.07l1.06,3.27c.12.38.47.63.87.63h3.44c1.32,0,2.43.81,2.84,2.06.41,1.25-.02,2.57-1.09,3.34l-2.78,2.02c-.32.23-.45.64-.33,1.02l1.06,3.27c.41,1.26-.02,2.57-1.09,3.34-1.07.78-2.45.78-3.51,0l-2.78-2.02c-.32-.23-.75-.23-1.07,0l-2.78,2.02c-.53.39-1.15.58-1.76.58Zm5.07-4.86c.62,0,1.23.19,1.76.57l2.78,2.02c.5.36.95.09,1.07,0,.13-.09.52-.43.33-1.02l-1.06-3.27c-.4-1.24.04-2.58,1.09-3.34l2.78-2.02c.5-.36.38-.87.33-1.02-.05-.15-.25-.63-.87-.63h-3.44c-1.3,0-2.44-.83-2.84-2.07l-1.06-3.27h0c-.19-.58-.71-.63-.87-.63s-.68.05-.87.63l-1.06,3.27c-.4,1.24-1.54,2.07-2.84,2.07h-3.44c-.61,0-.82.48-.87.63-.05.15-.17.66.33,1.02l2.78,2.02c1.05.76,1.49,2.11,1.08,3.34l-1.06,3.27c-.19.58.21.93.33,1.02.13.09.57.36,1.07,0l2.78-2.02c.53-.38,1.14-.57,1.76-.57Z"/>
  </g>
</svg>